<?xml version="1.0" encoding="utf-8"?>
<!-- Generator: Adobe Illustrator 22.0.1, SVG Export Plug-In . SVG Version: 6.00 Build 0)  -->
<svg version="1.1" id="Layer_1" xmlns="http://www.w3.org/2000/svg" xmlns:xlink="http://www.w3.org/1999/xlink" x="0px" y="0px"
	 viewBox="0 0 300 300" style="enable-background:new 0 0 300 300;" xml:space="preserve">
<g>
	<g>
		<g>
			<path d="M255.6,254.3c-20.2-0.1-39.2-8.4-56.1-19c-17.1-10.8-30.7-25.1-41.8-42c-11.1-16.9-21.1-35-29.4-53.4
				c-8.4-18.7-16.1-38-22.1-57.6C99.5,60.4,93.7,38.2,84.8,17c-0.7-1.8-3.6-1-2.9,0.8c8.3,19.8,14,40.4,20.1,60.9
				c6,20,13.7,39.4,21.9,58.5c8.4,19.5,18.8,38.4,30.3,56.2c10.4,16.2,23.4,30.9,39.5,41.7c18.4,12.3,39.4,22.2,61.9,22.3
				C257.6,257.3,257.6,254.3,255.6,254.3L255.6,254.3z"/>
		</g>
	</g>
</g>
<g>
	<g>
		<path d="M54.5,120.1C80.8,92.5,81,52.6,84.5,17c-0.6,0.5-1.3,1-1.9,1.4c9.4,4,18,9.4,26.7,14.6c9,5.4,18.3,10.3,27.7,15
			c17,8.6,34.4,15.4,53.2,18.5c1.9,0.3,2.7-2.6,0.8-2.9c-19.9-3.3-38.1-10.8-55.9-20c-9-4.6-18-9.5-26.6-14.7
			c-8.2-4.9-16.3-9.8-25.1-13.5c-1-0.4-1.8,0.6-1.9,1.4C78,51.7,78.1,91,52.3,117.9C51,119.3,53.1,121.5,54.5,120.1L54.5,120.1z"/>
	</g>
</g>
</svg>
